:FULLY-SPECIFIED
:FORCE-ALL-JOINTS-BE-3DOF
:DEGREES
272
root 8.24606 16.221 -25.2615 21.0712 68.5627 17.9911
lfemur -25.7482 7.8757 -22.9013
ltibia 40.8731 0 0
lfoot -6.73003 -20.5653 0
ltoes 63.7368 0 0
rfemur -52.2108 -4.3264 12.3301
rtibia 83.1976 0 0
rfoot 9.37987 -0.736881 0
rtoes -3.28729 0 0
lowerback 6.23516 -4.39783 -2.198
upperback 1.29081 -6.01446 -1.50671
thorax -2.10609 -2.964 0.164941
lowerneck -5.59678 -10.9785 -4.46244
upperneck 0.653228 -14.4711 4.92485
head 1.89674 -7.15518 1.74578
lclavicle 3.47131e-14 1.25078e-14 0
lhumerus -45.4991 -35.1232 108.281
lradius 59.2205 0 0
lwrist 20.3477 0 0
lhand 18.428 14.7356 0
lfingers 7.12502 0 0
lthumb 43.0559 38.8612 0
rclavicle 3.47131e-14 1.25078e-14 0
rhumerus -52.6717 0.667854 -93.3494
rradius 42.6688 0 0
rwrist 26.4782 0 0
rhand -24.4128 4.3578 0
rfingers 7.12502 0 0
rthumb 2.10456 -745.83 0
273
root 8.33389 16.184 -25.1984 22.0178 69.6152 19.6364
lfemur -24.9068 7.42491 -22.9746
ltibia 41.3156 0 0
lfoot -6.50165 -21.5121 0
ltoes 63.5817 0 0
rfemur -53.5214 -4.9188 13.376
rtibia 82.9921 0 0
rfoot 8.31175 -0.548277 0
rtoes -1.02776 0 0
lowerback 6.48543 -4.50273 -2.42956
upperback 1.50424 -6.16545 -1.81348
thorax -2.0218 -3.04164 -0.0081008
lowerneck -5.3022 -11.132 -4.63874
upperneck 0.64734 -14.6926 5.26105
head 1.89679 -7.26216 1.88267
lclavicle 3.33288e-14 1.22721e-14 0
lhumerus -45.0634 -35.3747 107.491
lradius 59.1607 0 0
lwrist 20.3313 0 0
lhand 19.0983 14.9203 0
lfingers 7.12502 0 0
lthumb 43.6879 38.8661 0
rclavicle 3.33288e-14 1.22721e-14 0
rhumerus -53.8597 2.20933 -95.1733
rradius 44.4056 0 0
rwrist 24.8391 0 0
rhand -24.4451 3.9368 0
rfingers 7.12502 0 0
rthumb 2.05424 -746.088 0
274
root 8.4395 16.1423 -25.1255 23.0313 70.8426 21.4534
lfemur -23.9806 6.96001 -23.0939
ltibia 41.8329 0 0
lfoot -6.34822 -22.6063 0
ltoes 63.6522 0 0
rfemur -54.677 -5.40979 14.4999
rtibia 82.6074 0 0
rfoot 7.37167 -0.590177 0
rtoes 1.37596 0 0
lowerback 6.738 -4.61229 -2.71573
upperback 1.7394 -6.3233 -2.13178
thorax -1.91208 -3.12316 -0.164029
lowerneck -4.98008 -11.3206 -4.84023
upperneck 0.669695 -14.9622 5.62359
head 1.90668 -7.39287 2.03008
lclavicle 3.07285e-14 1.19908e-14 0
lhumerus -44.5846 -35.6402 106.647
lradius 59.1166 0 0
lwrist 20.3141 0 0
lhand 19.7519 15.0959 0
lfingers 7.12502 0 0
lthumb 44.3039 38.8645 0
rclavicle 3.07285e-14 1.19908e-14 0
rhumerus -55.2369 3.9752 -97.0583
rradius 46.1277 0 0
rwrist 23.439 0 0
rhand -24.7442 3.49961 0
rfingers 7.12502 0 0
rthumb 1.75858 -746.473 0
275
root 8.5508 16.0976 -25.0513 24.0644 72.1247 23.3235
lfemur -23.0545 6.52816 -23.2214
ltibia 42.4136 0 0
lfoot -6.26231 -23.7513 0
ltoes 63.8049 0 0
rfemur -55.5381 -5.76811 15.5979
rtibia 82.0148 0 0
rfoot 6.53812 -0.880077 0
rtoes 3.95968 0 0
lowerback 6.96278 -4.72244 -3.02675
upperback 1.97421 -6.48094 -2.43378
thorax -1.78344 -3.20496 -0.291776
lowerneck -4.65988 -11.5154 -5.05854
upperneck 0.735043 -15.2412 5.97431
head 1.93197 -7.52803 2.17483
lclavicle 2.70927e-14 1.16498e-14 0
lhumerus -44.0957 -35.8787 105.817
lradius 59.0945 0 0
lwrist 20.2976 0 0
lhand 20.3526 15.266 0
lfingers 7.12502 0 0
lthumb 44.8698 38.8699 0
rclavicle 2.70927e-14 1.16498e-14 0
rhumerus -56.8065 5.82875 -98.9473
rradius 47.8196 0 0
rwrist 22.3421 0 0
rhand -25.2106 3.0479 0
rfingers 7.12502 0 0
rthumb 1.30835 -746.936 0
276
root 8.65447 16.0518 -24.9843 25.0638 73.3223 25.1153
lfemur -22.214 6.17838 -23.3139
ltibia 43.0405 0 0
lfoot -6.23098 -24.8391 0
ltoes 63.8722 0 0
rfemur -56.0007 -5.98433 16.5706
rtibia 81.2031 0 0
rfoot 5.76946 -1.40054 0
rtoes 6.74151 0 0
lowerback 7.13303 -4.82819 -3.32941
upperback 2.18674 -6.63018 -2.6935
thorax -1.64459 -3.28285 -0.383914
lowerneck -4.37182 -11.6851 -5.28141
upperneck 0.851543 -15.4878 6.27651
head 1.97592 -7.64672 2.30391
lclavicle 2.27268e-14 1.12364e-14 0
lhumerus -43.6331 -36.0558 105.069
lradius 59.0983 0 0
lwrist 20.2827 0 0
lhand 20.8694 15.4343 0
lfingers 7.12502 0 0
lthumb 45.3565 38.8945 0
rclavicle 2.27268e-14 1.12364e-14 0
rhumerus -58.5357 7.62424 -100.772
rradius 49.4832 0 0
rwrist 21.5582 0 0
rhand -25.7087 2.57742 0
rfingers 7.12502 0 0
rthumb 0.827618 -747.421 0
277
root 8.75082 16.0052 -24.9237 26.0247 74.4323 26.8251
lfemur -21.453 5.90783 -23.3726
ltibia 43.7073 0 0
lfoot -6.25271 -25.8685 0
ltoes 63.8605 0 0
rfemur -56.1029 -6.07481 17.4287
rtibia 80.1925 0 0
rfoot 5.06272 -2.12403 0
rtoes 9.68407 0 0
lowerback 7.25396 -4.92869 -3.62384
upperback 2.37882 -6.77017 -2.91425
thorax -1.49687 -3.35635 -0.443549
lowerneck -4.11418 -11.8312 -5.50594
upperneck 1.01205 -15.7036 6.53457
head 2.03596 -7.74994 2.41841
lclavicle 1.77099e-14 1.07563e-14 0
lhumerus -43.1973 -36.1802 104.399
lradius 59.1253 0 0
lwrist 20.2689 0 0
lhand 21.3069 15.5989 0
lfingers 7.12502 0 0
lthumb 45.7682 38.9356 0
rclavicle 1.77099e-14 1.07563e-14 0
rhumerus -60.3884 9.36347 -102.52
rradius 51.1187 0 0
rwrist 21.0505 0 0
rhand -26.2277 2.08742 0
rfingers 7.12502 0 0
rthumb 0.326897 -747.929 0
278
root 8.84014 15.9579 -24.8689 26.9427 75.4514 28.4491
lfemur -20.7657 5.71363 -23.3993
ltibia 44.4076 0 0
lfoot -6.32597 -26.8385 0
ltoes 63.7761 0 0
rfemur -55.8829 -6.05588 18.1832
rtibia 79.0034 0 0
rfoot 4.41496 -3.02304 0
rtoes 12.75 0 0
lowerback 7.3308 -5.02311 -3.91017
upperback 2.55227 -6.90007 -3.09932
thorax -1.34165 -3.425 -0.473789
lowerneck -3.88522 -11.9553 -5.72921
upperneck 1.2094 -15.8906 6.75283
head 2.10954 -7.83866 2.51942
lclavicle 1.2121e-14 1.02152e-14 0
lhumerus -42.789 -36.2608 103.804
lradius 59.1729 0 0
lwrist 20.2557 0 0
lhand 21.6693 15.758 0
lfingers 7.12502 0 0
lthumb 46.109 38.9902 0
rclavicle 1.2121e-14 1.02152e-14 0
rhumerus -62.3285 11.0483 -104.179
rradius 52.7268 0 0
rwrist 20.7822 0 0
rhand -26.7566 1.57718 0
rfingers 7.12502 0 0
rthumb -0.183319 -748.46 0
279
root 8.92272 15.9101 -24.8189 27.8132 76.3765 29.9836
lfemur -20.1459 5.59293 -23.3952
ltibia 45.1351 0 0
lfoot -6.4492 -27.7481 0
ltoes 63.6256 0 0
rfemur -55.3789 -5.94388 18.8449
rtibia 77.6561 0 0
rfoot 3.82322 -4.07004 0
rtoes 15.9019 0 0
lowerback 7.36877 -5.11061 -4.18855
upperback 2.70894 -7.01903 -3.25202
thorax -1.18027 -3.48836 -0.47774
lowerneck -3.68321 -12.0588 -5.94832
upperneck 1.43647 -16.0505 6.93566
head 2.19408 -7.9139 2.60804
lclavicle 6.03893e-15 9.61881e-15 0
lhumerus -42.4089 -36.3067 103.278
lradius 59.2385 0 0
lwrist 20.2426 0 0
lhand 21.9613 15.9097 0
lfingers 7.12502 0 0
lthumb 46.3833 39.0555 0
rclavicle 6.03893e-15 9.61881e-15 0
rhumerus -64.3197 12.6804 -105.735
rradius 54.3078 0 0
rwrist 20.7163 0 0
rhand -27.2846 1.04598 0
rfingers 7.12502 0 0
rthumb -0.692531 -749.012 0
280
root 8.99888 15.8621 -24.773 28.6315 77.2044 31.4248
lfemur -19.5877 5.54286 -23.3621
ltibia 45.8833 0 0
lfoot -6.6209 -28.5962 0
ltoes 63.4152 0 0
rfemur -54.629 -5.75514 19.4245
rtibia 76.1709 0 0
rfoot 3.28455 -5.23752 0
rtoes 19.1024 0 0
lowerback 7.37309 -5.19035 -4.45912
upperback 2.85064 -7.1262 -3.37567
thorax -1.01408 -3.54595 -0.458509
lowerneck -3.50643 -12.1433 -6.16035
upperneck 1.68609 -16.1853 7.08742
head 2.28701 -7.97663 2.68535
lclavicle -4.57196e-16 8.97287e-15 0
lhumerus -42.0576 -36.3266 102.818
lradius 59.3197 0 0
lwrist 20.2291 0 0
lhand 22.1871 16.0519 0
lfingers 7.12502 0 0
lthumb 46.5952 39.1285 0
rclavicle -4.57196e-16 8.97287e-15 0
rhumerus -66.326 14.2618 -107.175
rradius 55.8622 0 0
rwrist 20.8161 0 0
rhand -27.8007 0.493065 0
rfingers 7.12502 0 0
rthumb -1.19024 -749.588 0
281
root 9.06889 15.8141 -24.7306 29.3931 77.9321 32.7691
lfemur -19.085 5.56056 -23.3012
ltibia 46.646 0 0
lfoot -6.83951 -29.3819 0
ltoes 63.1512 0 0
rfemur -53.6714 -5.506 19.9331
rtibia 74.568 0 0
rfoot 2.79599 -6.49795 0
rtoes 22.314 0 0
lowerback 7.34899 -5.2615 -4.72201
upperback 2.97922 -7.22075 -3.47355
thorax -0.844457 -3.59732 -0.419205
lowerneck -3.35316 -12.2105 -6.3624
upperneck 1.95113 -16.2966 7.21246
head 2.38578 -8.02786 2.75244
lclavicle -7.28842e-15 8.28308e-15 0
lhumerus -41.7357 -36.3295 102.418
lradius 59.4137 0 0
lwrist 20.2148 0 0
lhand 22.3514 16.1829 0
lfingers 7.12502 0 0
lthumb 46.7489 39.2065 0
rclavicle -7.28842e-15 8.28308e-15 0
rhumerus -68.3111 15.7941 -108.488
rradius 57.3903 0 0
rwrist 21.0448 0 0
rhand -28.2941 -0.0822785 0
rfingers 7.12502 0 0
rthumb -1.66594 -750.185 0
282
root 9.13306 15.7663 -24.6907 30.0935 78.5563 34.0125
lfemur -18.6319 5.64317 -23.2142
ltibia 47.4166 0 0
lfoot -7.1035 -30.104 0
ltoes 62.8402 0 0
rfemur -52.5443 -5.2128 20.3813
rtibia 72.8677 0 0
rfoot 2.3546 -7.8238 0
rtoes 25.4996 0 0
lowerback 7.30169 -5.32321 -4.97737
upperback 3.09649 -7.30181 -3.54899
thorax -0.672737 -3.642 -0.362933
lowerneck -3.22165 -12.2617 -6.55156
upperneck 2.22443 -16.3864 7.31515
head 2.4878 -8.06857 2.8104
lclavicle -1.43757e-14 7.55513e-15 0
lhumerus -41.444 -36.3243 102.076
lradius 59.5181 0 0
lwrist 20.199 0 0
lhand 22.4585 16.3008 0
lfingers 7.12502 0 0
lthumb 46.8487 39.2865 0
rclavicle -1.43757e-14 7.55513e-15 0
rhumerus -70.2389 17.2792 -109.659
rradius 58.8927 0 0
rwrist 21.3654 0 0
rhand -28.7537 -0.680786 0
rfingers 7.12502 0 0
rthumb -2.10914 -750.805 0
283
root 9.19169 15.7189 -24.6526 30.728 79.0739 35.1514
lfemur -18.2223 5.78783 -23.1025
ltibia 48.189 0 0
lfoot -7.41134 -30.7616 0
ltoes 62.4884 0 0
rfemur -51.286 -4.89188 20.78
rtibia 71.0904 0 0
rfoot 1.95741 -9.18757 0
rtoes 28.6215 0 0
lowerback 7.2364 -5.37465 -5.22532
upperback 3.2043 -7.36856 -3.60528
thorax -0.500281 -3.67954 -0.292801
lowerneck -3.11018 -12.2987 -6.72491
upperneck 2.49884 -16.4564 7.39984
head 2.59052 -8.09975 2.86033
lclavicle -2.16402e-14 6.79473e-15 0
lhumerus -41.183 -36.3199 101.785
lradius 59.6302 0 0
lwrist 20.1814 0 0
lhand 22.5129 16.4035 0
lfingers 7.12502 0 0
lthumb 46.8989 39.3657 0
rclavicle -2.16402e-14 6.79473e-15 0
rhumerus -72.0733 18.719 -110.676
rradius 60.3697 0 0
rwrist 21.7412 0 0
rhand -29.1689 -1.30319 0
rfingers 7.12502 0 0
rthumb -2.50934 -751.447 0
284
root 9.24507 15.6721 -24.6156 31.292 79.4818 36.182
lfemur -17.8503 5.99167 -22.9676
ltibia 48.9566 0 0
lfoot -7.76151 -31.3537 0
ltoes 62.1022 0 0
rfemur -49.9344 -4.55958 21.1402
rtibia 69.2563 0 0
rfoot 1.60148 -10.5617 0
rtoes 31.6426 0 0
lowerback 7.15836 -5.41497 -5.46602
upperback 3.30447 -7.42014 -3.64573
thorax -0.328441 -3.70947 -0.211916
lowerneck -3.01702 -12.3228 -6.87956
upperneck 2.76722 -16.5086 7.47088
head 2.69136 -8.1224 2.90331
lclavicle -2.90028e-14 6.0076e-15 0
lhumerus -40.9534 -36.3251 101.543
lradius 59.7474 0 0
lwrist 20.1613 0 0
lhand 22.519 16.4893 0
lfingers 7.12502 0 0
lthumb 46.9036 39.4411 0
rclavicle -2.90028e-14 6.0076e-15 0
rhumerus -73.778 20.1152 -111.526
rradius 61.8218 0 0
rwrist 22.1353 0 0
rhand -29.5285 -1.95022 0
rfingers 7.12502 0 0
rthumb -2.85604 -752.112 0
